<svg width="40" height="40" viewBox="0 0 40 40" fill="none" xmlns="http://www.w3.org/2000/svg">
<g clip-path="url(#clip0_21159_7781)">
<path d="M37.9998 7.99963L38 32C37.9998 36.418 34.418 39.9999 30 40H10C5.58184 40 2.0002 36.4181 2 32V8C2 3.58172 5.58172 0 10 0H29.9873L37.9998 7.99963Z" fill="white"/>
<path d="M2 32V8C2 3.58172 5.58172 0 10 0H29.9873L37.9998 7.99963L38 32C37.9998 36.418 34.418 39.9999 30 40V39C33.7448 38.9999 36.8035 36.0587 36.9912 32.3604L37 32V8.5H32.9873C31.0544 8.5 29.4875 6.93283 29.4873 5V1H10C6.134 1 3 4.134 3 8V32C3.0002 35.8659 6.13419 39 10 39V40C5.58184 40 2.0002 36.4181 2 32ZM30 39V40H10V39H30ZM30.4873 5C30.4875 6.38054 31.6067 7.5 32.9873 7.5H36.084L30.4873 1.91211V5Z" fill="#B2B2B2"/>
<path d="M2 32V8C2 3.58172 5.58172 0 10 0H29.9873L38 8V32C37.9998 36.418 34.418 39.9999 30 40V39.5C34.0125 39.4999 37.2893 36.3484 37.4902 32.3857L37.5 32V8.25H32.9873C31.1925 8.25 29.7375 6.79476 29.7373 5V0.5H10C5.85786 0.5 2.5 3.85786 2.5 8V32C2.5002 36.142 5.85801 39.5 10 39.5V40C5.58184 40 2.0002 36.4181 2 32ZM30 39.5V40H10V39.5H30ZM30.2373 5C30.2375 6.51861 31.4686 7.75 32.9873 7.75H37.042L30.2373 0.956055V5Z" fill="#B2B2B2"/>
<path d="M23.375 12.3099C25.2519 11.6641 26.8441 11.6284 27.9277 11.7386C29.1992 11.868 29.9149 12.9934 29.915 14.0961V23.9125C29.9148 25.2478 28.9388 26.3807 27.6221 26.5853C26.4954 26.7602 24.9956 26.9967 23.7178 27.2103C22.5599 27.404 21.7672 27.6624 21.2764 27.8636C21.0309 27.9643 20.8595 28.0513 20.7559 28.1088C20.7044 28.1373 20.6689 28.159 20.6494 28.1713C20.6444 28.1744 20.6397 28.1762 20.6367 28.1781H20.6357L20.6367 28.1791L20.6357 28.18L20.6318 28.182C20.6324 28.1815 20.6327 28.1801 20.6338 28.1791C20.486 28.284 20.3124 28.3222 20.1455 28.3021C20.1213 28.3047 20.0971 28.3099 20.0723 28.3099C20.0188 28.3099 19.967 28.3017 19.917 28.2904C19.7315 28.3301 19.5318 28.2977 19.3652 28.1791L19.3643 28.1781H19.3633C19.3603 28.1762 19.3556 28.1744 19.3506 28.1713C19.3311 28.159 19.2956 28.1373 19.2441 28.1088C19.1405 28.0513 18.9691 27.9643 18.7236 27.8636C18.2328 27.6624 17.4401 27.404 16.2822 27.2103C15.0044 26.9967 13.5046 26.7602 12.3779 26.5853C11.0612 26.3807 10.0852 25.2478 10.085 23.9125V14.0961C10.0851 12.9934 10.8008 11.868 12.0723 11.7386C13.1559 11.6284 14.7481 11.6641 16.625 12.3099C18.3324 12.8975 19.3247 13.5275 19.9033 14.055C19.9374 14.0861 19.9688 14.1185 20 14.1488C20.0312 14.1185 20.0626 14.0861 20.0967 14.055C20.6753 13.5275 21.6676 12.8975 23.375 12.3099ZM19.3652 28.1791C19.3666 28.1802 19.3675 28.1814 19.3682 28.182L19.3643 28.18L19.3633 28.1791V28.1781L19.3652 28.1791ZM16.1699 13.6341C14.5133 13.0641 13.1282 13.0382 12.2139 13.1312C11.8247 13.1708 11.4855 13.5296 11.4854 14.0961V23.9125C11.4856 24.5547 11.9554 25.1024 12.5928 25.2015C13.721 25.3766 15.2267 25.6144 16.5127 25.8295C17.7692 26.0396 18.663 26.326 19.2549 26.5687C19.2956 26.5854 19.3342 26.6042 19.3721 26.6205V15.6322C19.368 15.6238 19.3661 15.6144 19.3623 15.6058C19.3491 15.576 19.3381 15.5456 19.3291 15.514C19.3276 15.5088 19.3246 15.5037 19.3232 15.4984L19.3223 15.4994L19.3232 15.5013V15.5043C19.3237 15.5059 19.3247 15.5077 19.3252 15.5091C19.3261 15.5124 19.3273 15.5161 19.3281 15.5189C19.3298 15.5245 19.3309 15.53 19.332 15.5336C19.3333 15.5374 19.3345 15.5402 19.335 15.5414C19.3332 15.5372 19.3242 15.5159 19.3027 15.4808C19.2585 15.4087 19.1592 15.2709 18.96 15.0892C18.5591 14.7238 17.7498 14.1779 16.1699 13.6341ZM27.7861 13.1312C26.8718 13.0382 25.4867 13.0641 23.8301 13.6341C22.2502 14.1779 21.4409 14.7238 21.04 15.0892C20.9137 15.2044 20.8298 15.304 20.7725 15.3783V26.558C21.3644 26.3177 22.2499 26.0364 23.4873 25.8295C24.7733 25.6144 26.279 25.3766 27.4072 25.2015C28.0446 25.1024 28.5144 24.5547 28.5146 23.9125V14.0961C28.5145 13.5296 28.1753 13.1708 27.7861 13.1312ZM16.9268 18.9047C17.3133 18.9047 17.627 19.2183 17.627 19.6048C17.627 19.9914 17.3133 20.305 16.9268 20.305H13.0693C12.6828 20.305 12.3691 19.9914 12.3691 19.6048C12.3691 19.2183 12.6828 18.9047 13.0693 18.9047H16.9268ZM15.6436 16.4408C16.03 16.441 16.3438 16.7545 16.3438 17.141C16.3437 17.5274 16.03 17.841 15.6436 17.8412H13.2148C12.8283 17.8412 12.5147 17.5275 12.5146 17.141C12.5146 16.7544 12.8282 16.4408 13.2148 16.4408H15.6436Z" fill="#666666"/>
</g>
<defs>
<clipPath id="clip0_21159_7781">
<rect width="40" height="40" fill="white"/>
</clipPath>
</defs>
</svg>
