<svg width="40" height="40" viewBox="0 0 40 40" fill="none" xmlns="http://www.w3.org/2000/svg">
<g clip-path="url(#clip0_21172_31477)">
<path d="M37.7273 8.00003L37.7275 32.0004C37.7273 36.4184 34.1455 40.0003 29.7275 40.0004H9.72754C5.30938 40.0004 1.72774 36.4185 1.72754 32.0004V8.0004C1.72754 3.58212 5.30926 0.000396729 9.72754 0.000396729H29.7148L37.7273 8.00003Z" fill="#2A2A2A"/>
<path d="M1.72754 32.0004V8.0004C1.72754 3.58212 5.30926 0.000396729 9.72754 0.000396729H29.7148L37.7273 8.00003L37.7275 32.0004C37.7273 36.4184 34.1455 40.0003 29.7275 40.0004V39.0004C33.4724 39.0003 36.531 36.0591 36.7188 32.3607L36.7275 32.0004V8.5004H32.7148C30.782 8.5004 29.215 6.93322 29.2148 5.0004V1.0004H9.72754C5.86154 1.0004 2.72754 4.1344 2.72754 8.0004V32.0004C2.72774 35.8663 5.86173 39.0004 9.72754 39.0004V40.0004C5.30938 40.0004 1.72774 36.4185 1.72754 32.0004ZM29.7275 39.0004V40.0004H9.72754V39.0004H29.7275ZM30.2148 5.0004C30.215 6.38094 31.3343 7.5004 32.7148 7.5004H35.8115L30.2148 1.91251V5.0004Z" fill="#616161"/>
<path d="M1.72754 32.0004V8.0004C1.72754 3.58212 5.30926 0.000396729 9.72754 0.000396729H29.7148L37.7275 8.0004V32.0004C37.7273 36.4184 34.1455 40.0003 29.7275 40.0004V39.5004C33.74 39.5003 37.0168 36.3488 37.2178 32.3861L37.2275 32.0004V8.2504H32.7148C30.92 8.2504 29.465 6.79515 29.4648 5.0004V0.500397H9.72754C5.5854 0.500397 2.22754 3.85826 2.22754 8.0004V32.0004C2.22774 36.1424 5.58555 39.5004 9.72754 39.5004V40.0004C5.30938 40.0004 1.72774 36.4185 1.72754 32.0004ZM29.7275 39.5004V40.0004H9.72754V39.5004H29.7275ZM29.9648 5.0004C29.965 6.51901 31.1962 7.7504 32.7148 7.7504H36.7695L29.9648 0.956451V5.0004Z" fill="#616161"/>
<path d="M23.1025 12.3102C24.9794 11.6643 26.5716 11.6287 27.6553 11.7389C28.9268 11.8683 29.6425 12.9936 29.6426 14.0963V23.9127C29.6424 25.248 28.6664 26.381 27.3496 26.5856C26.223 26.7604 24.7231 26.9969 23.4453 27.2106C22.2874 27.4042 21.4948 27.6626 21.0039 27.8639C20.7584 27.9646 20.5871 28.0516 20.4834 28.109C20.4319 28.1375 20.3964 28.1592 20.377 28.1715C20.3719 28.1747 20.3672 28.1765 20.3643 28.1783H20.3633L20.3643 28.1793L20.3633 28.1803L20.3594 28.1822C20.36 28.1818 20.3603 28.1804 20.3613 28.1793C20.2136 28.2842 20.0399 28.3225 19.873 28.3024C19.8488 28.3049 19.8247 28.3102 19.7998 28.3102C19.7464 28.3102 19.6945 28.302 19.6445 28.2906C19.4591 28.3303 19.2593 28.2979 19.0928 28.1793L19.0918 28.1783H19.0908C19.0879 28.1765 19.0832 28.1747 19.0781 28.1715C19.0587 28.1592 19.0232 28.1375 18.9717 28.109C18.868 28.0516 18.6967 27.9646 18.4512 27.8639C17.9603 27.6626 17.1677 27.4042 16.0098 27.2106C14.732 26.9969 13.2321 26.7604 12.1055 26.5856C10.7887 26.381 9.8127 25.248 9.8125 23.9127V14.0963C9.8126 12.9936 10.5283 11.8683 11.7998 11.7389C12.8835 11.6287 14.4756 11.6643 16.3525 12.3102C18.06 12.8977 19.0523 13.5278 19.6309 14.0553C19.665 14.0864 19.6963 14.1187 19.7275 14.149C19.7588 14.1187 19.7901 14.0864 19.8242 14.0553C20.4028 13.5278 21.3951 12.8977 23.1025 12.3102ZM19.0928 28.1793C19.0942 28.1805 19.095 28.1817 19.0957 28.1822L19.0918 28.1803L19.0908 28.1793V28.1783L19.0928 28.1793ZM15.8975 13.6344C14.2408 13.0643 12.8558 13.0384 11.9414 13.1315C11.5522 13.1711 11.213 13.5298 11.2129 14.0963V23.9127C11.2131 24.555 11.6829 25.1027 12.3203 25.2018C13.4486 25.3769 14.9543 25.6147 16.2402 25.8297C17.4968 26.0398 18.3906 26.3262 18.9824 26.569C19.0232 26.5857 19.0617 26.6045 19.0996 26.6207V15.6315C19.0958 15.6236 19.0934 15.6151 19.0898 15.6071C19.0765 15.577 19.0657 15.5461 19.0566 15.5143C19.0552 15.509 19.0522 15.504 19.0508 15.4987L19.0498 15.4996L19.0508 15.5016V15.5045C19.0512 15.5062 19.0523 15.5079 19.0527 15.5094C19.0537 15.5127 19.0548 15.5164 19.0557 15.5192C19.0574 15.5249 19.0584 15.5303 19.0596 15.5338C19.0609 15.5378 19.062 15.5405 19.0625 15.5416C19.0609 15.5378 19.052 15.5166 19.0303 15.4811C18.9861 15.409 18.8868 15.2712 18.6875 15.0895C18.2867 14.7241 17.4775 14.1782 15.8975 13.6344ZM27.5137 13.1315C26.5993 13.0384 25.2142 13.0643 23.5576 13.6344C21.9776 14.1782 21.1684 14.7241 20.7676 15.0895C20.6412 15.2047 20.5574 15.3042 20.5 15.3785V26.5582C21.0919 26.3179 21.9774 26.0366 23.2148 25.8297C24.5008 25.6147 26.0065 25.3769 27.1348 25.2018C27.7721 25.1027 28.242 24.555 28.2422 23.9127V14.0963C28.2421 13.5298 27.9029 13.1711 27.5137 13.1315ZM16.6543 18.9049C17.0408 18.905 17.3545 19.2185 17.3545 19.6051C17.3544 19.9916 17.0408 20.3052 16.6543 20.3053H12.7969C12.4104 20.3052 12.0968 19.9916 12.0967 19.6051C12.0967 19.2185 12.4103 18.905 12.7969 18.9049H16.6543ZM15.3711 16.441C15.7575 16.4412 16.0713 16.7548 16.0713 17.1412C16.0712 17.5276 15.7574 17.8412 15.3711 17.8414H12.9424C12.5559 17.8414 12.2423 17.5277 12.2422 17.1412C12.2422 16.7546 12.5558 16.441 12.9424 16.441H15.3711Z" fill="#A1A1A1"/>
</g>
<defs>
<clipPath id="clip0_21172_31477">
<rect width="40" height="40" fill="white"/>
</clipPath>
</defs>
</svg>
